<?xml version="1.0" encoding="iso-8859-1"?>
<!-- Generator: Adobe Illustrator 19.0.0, SVG Export Plug-In . SVG Version: 6.00 Build 0)  -->
<svg version="1.1" id="Layer_1" xmlns="http://www.w3.org/2000/svg" xmlns:xlink="http://www.w3.org/1999/xlink" x="0px" y="0px"
	 viewBox="0 0 512 512" style="enable-background:new 0 0 512 512;" xml:space="preserve">
<path style="fill:rgb(255, 23, 68);" d="M483.634,469.339c0-216.104-178.414-391.298-227.633-391.298
	c-43.068,0-227.633,175.194-227.633,391.298H483.634z"/>
<path style="opacity:0.2;fill:#414042;enable-background:new    ;" d="M279.405,85.726c-9.367-5.033-17.362-7.684-23.404-7.684
	c-43.068,0-227.633,175.194-227.633,391.298h45.074C73.442,279.775,215.455,121.696,279.405,85.726z"/>
<path style="fill:#F5F5F5;" d="M512,479.804c0,11.493-9.356,20.809-20.898,20.809H20.898C9.356,500.613,0,491.297,0,479.804v-74.378
	c0-11.493,9.356-20.809,20.898-20.809h470.204c11.542,0,20.898,9.316,20.898,20.809V479.804z"/>
<path style="opacity:0.2;fill:#414042;enable-background:new    ;" d="M56.59,479.804v-74.378c0-11.493,9.355-20.809,20.898-20.809
	h-56.59C9.356,384.617,0,393.933,0,405.426v74.378c0,11.493,9.356,20.809,20.898,20.809h56.59
	C65.945,500.613,56.59,491.297,56.59,479.804z"/>
<circle style="fill:#F1F2F2;" cx="256" cy="64.739" r="53.352"/>
<path style="opacity:0.2;fill:#414042;enable-background:new    ;" d="M278.096,95.728c-29.467,0-53.356-23.888-53.356-53.357
	c0-8.888,2.18-17.264,6.024-24.631c-16.736,9.002-28.12,26.664-28.12,46.998c0,29.467,23.888,53.356,53.357,53.356
	c20.57,0,38.408-11.649,47.312-28.703C295.803,93.429,287.22,95.728,278.096,95.728z"/>
<g>
</g>
<g>
</g>
<g>
</g>
<g>
</g>
<g>
</g>
<g>
</g>
<g>
</g>
<g>
</g>
<g>
</g>
<g>
</g>
<g>
</g>
<g>
</g>
<g>
</g>
<g>
</g>
<g>
</g>
</svg>
