<?xml version="1.0" encoding="utf-8"?>
<!-- Generator: Adobe Illustrator 16.0.0, SVG Export Plug-In . SVG Version: 6.00 Build 0)  -->
<!DOCTYPE svg PUBLIC "-//W3C//DTD SVG 1.1//EN" "http://www.w3.org/Graphics/SVG/1.1/DTD/svg11.dtd">
<svg version="1.1" id="Layer_1" xmlns="http://www.w3.org/2000/svg" xmlns:xlink="http://www.w3.org/1999/xlink" x="0px" y="0px"
	 width="91.581px" height="18.859px" viewBox="19.003 4.907 91.581 18.859" enable-background="new 19.003 4.907 91.581 18.859"
	 xml:space="preserve">
<g>
	<path fill="#FFFFFF" d="M24.865,23.766c-3.851,0-5.861-2.6-5.861-6.105v-1.987c0-3.506,2.01-6.105,5.861-6.105
		c3.85,0,5.861,2.6,5.861,6.105v1.987C30.726,21.166,28.713,23.766,24.865,23.766 M27.488,15.672c0-2.01-0.909-3.31-2.625-3.31
		c-1.716,0-2.624,1.3-2.624,3.31v1.986c0,2.012,0.908,3.312,2.624,3.312c1.716,0,2.625-1.301,2.625-3.312V15.672z"/>
</g>
<g>
	<path fill="#FFFFFF" d="M43.27,23.568h-2.256c-0.269,0-0.49-0.244-0.49-0.514V15.06c0-2.134-0.196-2.746-2.084-2.746
		c-0.834,0-1.741,0.343-2.771,0.882v9.859c0,0.27-0.221,0.514-0.491,0.514h-2.256c-0.269,0-0.49-0.244-0.49-0.514V10.229
		c0-0.27,0.221-0.49,0.49-0.49h2.133c0.27,0,0.491,0.221,0.491,0.49v0.515c1.422-0.907,2.353-1.177,3.972-1.177
		c3.531,0,4.243,2.379,4.243,5.493v7.995C43.76,23.324,43.54,23.568,43.27,23.568"/>
</g>
<g>
	<path fill="#FFFFFF" d="M56.698,17.783h-7.996v0.072c0,1.422,0.588,3.113,2.942,3.113c1.791,0,3.483-0.146,4.513-0.246h0.072
		c0.246,0,0.441,0.123,0.441,0.369v1.619c0,0.391-0.072,0.562-0.514,0.637c-1.595,0.295-2.552,0.416-4.759,0.416
		c-2.452,0-5.934-1.324-5.934-6.154v-1.812c0-3.827,2.134-6.23,5.884-6.23c3.777,0,5.837,2.574,5.837,6.23v1.372
		C57.187,17.562,57.042,17.783,56.698,17.783 M53.925,15.379c0-1.914-1.055-3.017-2.575-3.017s-2.623,1.079-2.623,3.017v0.098h5.198
		V15.379z"/>
</g>
<g>
	<path fill="#FFFFFF" d="M65.889,23.766c-0.957,0-3.017-0.123-4.39-0.49c-0.295-0.072-0.465-0.27-0.465-0.562V21.24
		c0-0.195,0.17-0.393,0.416-0.393h0.1c1.174,0.148,3.382,0.271,4.119,0.271c1.52,0,1.738-0.518,1.738-1.18
		c0-0.465-0.293-0.76-1.08-1.25l-3.355-2.06c-1.204-0.736-2.06-1.963-2.06-3.383c0-2.453,1.543-3.68,4.658-3.68
		c1.988,0,3.113,0.221,4.363,0.49c0.297,0.073,0.441,0.27,0.441,0.564v1.422c0,0.295-0.146,0.466-0.393,0.466h-0.098
		c-0.686-0.098-2.646-0.294-4.045-0.294c-1.178,0-1.693,0.27-1.693,1.031c0,0.391,0.369,0.636,0.98,1.004l3.211,1.962
		c2.062,1.251,2.355,2.476,2.355,3.726C70.696,22.074,69.102,23.766,65.889,23.766"/>
</g>
<g>
	<path fill="#FFFFFF" d="M83.241,23.568h-2.258c-0.27,0-0.49-0.244-0.49-0.514v-8.069c0-2.132-0.365-2.672-2.01-2.672
		c-0.834,0-1.814,0.294-2.844,0.833v9.908c0,0.27-0.223,0.514-0.49,0.514h-2.256c-0.271,0-0.492-0.244-0.492-0.514V5.397
		c0-0.27,0.221-0.491,0.492-0.491h2.256c0.268,0,0.49,0.222,0.49,0.491v5.077c0.93-0.564,1.961-0.908,3.701-0.908
		c3.385,0,4.391,2.403,4.391,5.419v8.069C83.731,23.324,83.506,23.568,83.241,23.568"/>
</g>
<g>
	<path fill="#FFFFFF" d="M91.295,23.766c-3.852,0-5.857-2.6-5.857-6.105v-1.987c0-3.506,2.008-6.105,5.857-6.105
		c3.852,0,5.861,2.6,5.861,6.105v1.987C97.157,21.166,95.147,23.766,91.295,23.766 M93.918,15.672c0-2.01-0.906-3.31-2.623-3.31
		s-2.623,1.3-2.623,3.31v1.986c0,2.012,0.906,3.312,2.623,3.312s2.623-1.301,2.623-3.312V15.672z"/>
</g>
<g>
	<path fill="#FFFFFF" d="M110.096,17.783H102.1v0.072c0,1.422,0.588,3.113,2.941,3.113c1.793,0,3.484-0.146,4.514-0.246h0.072
		c0.246,0,0.441,0.123,0.441,0.369v1.619c0,0.391-0.072,0.562-0.514,0.637c-1.596,0.295-2.553,0.416-4.758,0.416
		c-2.453,0-5.938-1.324-5.938-6.154v-1.812c0-3.827,2.135-6.23,5.887-6.23c3.777,0,5.838,2.574,5.838,6.23v1.372
		C110.584,17.562,110.44,17.783,110.096,17.783 M107.325,15.379c0-1.914-1.055-3.017-2.576-3.017c-1.52,0-2.623,1.079-2.623,3.017
		v0.098h5.199V15.379z"/>
</g>
</svg>
