<?xml version="1.0" encoding="utf-8"?>
<!-- Generator: Adobe Illustrator 16.0.0, SVG Export Plug-In . SVG Version: 6.00 Build 0)  -->
<!DOCTYPE svg PUBLIC "-//W3C//DTD SVG 1.1//EN" "http://www.w3.org/Graphics/SVG/1.1/DTD/svg11.dtd">
<svg version="1.1" id="Layer_1" xmlns="http://www.w3.org/2000/svg" xmlns:xlink="http://www.w3.org/1999/xlink" x="0px" y="0px"
	 width="29.595px" height="33.996px" viewBox="0 -52.5 29.595 33.996" enable-background="new 0 -52.5 29.595 33.996"
	 xml:space="preserve">
<g>
	<path fill="#FFFFFF" d="M21.661-29.048l-6.07,3.577c-0.067,0.037-0.13,0.074-0.192,0.105c-0.468,0.284-0.881,0.288-1.266,0.061
		c-0.091-0.047-0.187-0.1-0.289-0.166L6.13-30.02c-0.124-0.101-0.22-0.229-0.289-0.371c-0.084-0.174-0.13-0.371-0.134-0.572H5.7
		v-9.083l0,0c0.007-0.367,0.146-0.718,0.431-0.935l7.714-4.547c0.067-0.041,0.13-0.076,0.192-0.109
		c0.425-0.286,0.88-0.285,1.267-0.058c0.091,0.044,0.186,0.1,0.289,0.167l7.714,4.547c0.271,0.223,0.412,0.57,0.421,0.935h0.002
		v7.741l5.649,5.195c0.171-0.35,0.24-0.758,0.208-1.166v-14.684h-0.001c-0.017-0.596-0.247-1.168-0.694-1.537l-12.657-7.458
		c-0.17-0.112-0.326-0.202-0.475-0.275c-0.633-0.375-1.382-0.375-2.079,0.097c-0.1,0.053-0.204,0.111-0.314,0.179L0.709-44.496
		c-0.467,0.356-0.697,0.934-0.707,1.537H0v14.904h0.009c0.007,0.33,0.082,0.654,0.221,0.938l0,0
		c0.114,0.235,0.272,0.443,0.474,0.611l12.658,7.46c0.17,0.111,0.327,0.199,0.475,0.273c0.633,0.373,1.31,0.371,2.08-0.097
		c0.1-0.054,0.203-0.11,0.314-0.178l12.658-7.46c0.212-0.162,0.374-0.37,0.49-0.604L21.661-29.048z"/>
</g>
</svg>
